<?xml version="1.0" standalone="no"?>
<!DOCTYPE svg PUBLIC "-//W3C//DTD SVG 20010904//EN"
 "http://www.w3.org/TR/2001/REC-SVG-20010904/DTD/svg10.dtd">
<svg version="1.0" xmlns="http://www.w3.org/2000/svg"
 width="260.000000pt" height="260.000000pt" viewBox="0 0 260.000000 260.000000"
 preserveAspectRatio="xMidYMid meet">
<metadata>
Created by potrace 1.11, written by Peter Selinger 2001-2013
</metadata>
<g transform="translate(0.000000,260.000000) scale(0.100000,-0.100000)"
fill="#000000" stroke="none">
<path d="M1227 2593 c-3 -5 -8 -151 -12 -325 l-7 -318 -79 0 c-45 0 -79 -4
-79 -10 0 -14 33 -20 133 -23 l88 -2 -137 -245 c-75 -135 -163 -292 -194 -350
-118 -218 -133 -236 -239 -267 -52 -15 -61 -15 -121 1 -86 22 -114 48 -107
100 7 50 -7 86 -33 86 -21 0 -28 -24 -10 -35 5 -3 10 -22 10 -40 0 -28 -6 -37
-30 -50 -34 -18 -83 -20 -112 -4 -28 15 -45 -3 -23 -24 22 -22 78 -31 115 -19
16 6 30 7 30 2 0 -16 -54 -51 -72 -47 -9 3 -23 -1 -29 -9 -14 -17 -11 -21 16
-24 37 -4 51 0 73 20 12 12 22 16 22 11 0 -6 -10 -19 -21 -30 -22 -21 -20 -56
4 -49 14 5 44 62 52 101 l5 27 28 -20 c15 -11 53 -25 85 -32 49 -10 68 -10
120 4 34 9 63 15 65 13 3 -2 -93 -191 -152 -300 -30 -55 -30 -55 157 -57 94 0
184 0 199 1 l26 2 0 -168 c-1 -140 1 -174 16 -204 19 -40 74 -89 128 -115 33
-15 35 -18 30 -61 -5 -49 5 -133 16 -133 4 0 14 30 21 68 27 132 29 119 -24
142 -26 11 -70 43 -99 70 l-51 49 -3 123 c-2 67 -1 146 3 175 l6 53 270 0 269
0 1 -62 c3 -176 -1 -211 -33 -269 -19 -36 -48 -72 -79 -96 l-50 -38 5 -55 c6
-65 34 -150 48 -150 12 0 4 124 -11 163 -8 21 -6 26 16 38 34 18 78 76 111
146 24 52 27 72 30 191 l4 132 209 0 c168 0 209 3 209 13 0 8 -42 83 -93 168
l-94 154 91 0 c77 0 99 4 142 26 l52 25 5 -38 c6 -46 31 -88 52 -88 19 0 19
19 1 39 -7 9 -17 26 -20 38 -6 20 -4 19 23 -8 22 -22 38 -29 58 -27 39 4 37
32 -2 36 -16 2 -38 13 -47 25 -23 29 -23 40 1 27 29 -15 83 -12 110 6 34 24
13 39 -33 24 -41 -13 -95 -1 -118 27 -14 17 -12 61 5 81 7 9 7 16 0 23 -20 20
-54 -31 -52 -76 4 -53 -3 -62 -65 -91 -38 -18 -68 -24 -119 -24 -65 0 -69 2
-106 38 -35 33 -417 657 -485 790 l-26 51 87 3 c58 2 88 7 91 16 3 9 -13 12
-57 12 l-61 0 0 313 c0 230 -3 316 -12 325 -13 13 -134 17 -141 5z m134 -1004
c40 -9 64 -22 100 -56 63 -59 68 -77 33 -114 -37 -39 -114 -63 -199 -64 -58 0
-78 5 -115 27 -25 14 -56 38 -69 52 l-24 25 23 34 c27 40 74 74 127 93 47 16
59 17 124 3z m-358 -559 c5 -19 0 -20 -99 -20 -57 0 -104 4 -104 8 0 23 30 32
111 32 78 0 87 -2 92 -20z m137 0 c0 -18 -7 -20 -60 -20 -53 0 -60 2 -60 20 0
18 7 20 60 20 53 0 60 -2 60 -20z m193 13 c-13 -2 -35 -2 -50 0 -16 2 -5 4 22
4 28 0 40 -2 28 -4z m207 -13 c0 -16 -7 -20 -35 -20 -19 0 -35 -4 -35 -10 0
-6 33 -10 80 -10 l80 0 0 -60 0 -60 -170 0 -170 0 0 45 c0 62 18 66 84 20 30
-20 59 -34 65 -31 6 4 11 38 11 77 l0 69 45 0 c38 0 45 -3 45 -20z m280 0 c10
-20 8 -20 -125 -20 -128 0 -135 1 -135 20 0 19 7 20 125 20 114 0 125 -2 135
-20z m-910 -100 l0 -60 -96 0 -95 0 32 60 32 60 63 0 64 0 0 -60z m230 20 c0
-22 5 -40 10 -40 6 0 34 14 63 30 30 17 57 30 60 30 4 0 7 -22 7 -50 l0 -50
-169 0 -169 0 -4 60 -3 60 103 0 102 0 0 -40z m735 -12 c17 -29 32 -56 33 -60
2 -5 -55 -8 -127 -8 l-131 0 0 60 0 60 98 0 97 0 30 -52z"/>
<path d="M1286 1552 c-23 -45 -24 -137 -2 -167 13 -18 15 -17 35 15 11 19 21
52 21 73 0 36 -23 107 -34 107 -3 0 -12 -12 -20 -28z"/>
</g>
</svg>
